<svg width="50" height="51" viewBox="0 0 50 51" fill="none" xmlns="http://www.w3.org/2000/svg">
<path d="M9.95875 50.1948C8.37246 50.1948 6.78785 49.9226 5.31055 49.3781C4.82762 49.1996 4.33631 49.0865 3.83158 49.0359L1.84788 48.8336C0.794821 48.7265 1.16854e-08 47.9351 1.04514e-08 46.9934L8.12558e-09 45.2186C3.64559e-09 41.8 3.13569 39.0181 6.98907 39.0181L12.972 39.0181C16.8254 39.0181 19.9611 41.8 19.9611 45.2186L19.9611 46.9949C19.9611 47.9351 19.1663 48.7265 18.1132 48.8351L16.0188 49.0493C15.5409 49.0984 15.0731 49.207 14.6287 49.3721C13.1464 49.9196 11.5517 50.1948 9.95875 50.1948ZM6.98907 40.8018C4.24408 40.8018 2.01221 42.7833 2.01221 45.2171L2.01221 46.9919C2.01221 47.0261 2.04071 47.0544 2.07928 47.0588L4.06466 47.2611C4.75384 47.3311 5.42961 47.4873 6.07016 47.7238C8.55523 48.6402 11.3874 48.6372 13.854 47.7223C14.4728 47.4932 15.1234 47.3415 15.7891 47.2731L17.8835 47.0588C17.9221 47.0544 17.9506 47.0261 17.9506 46.9919L17.9506 45.2156C17.9506 42.7803 15.717 40.8003 12.9737 40.8003L6.98907 40.8003L6.98907 40.8018Z" fill="#F3DD2E"/>
<path d="M9.98052 37.8295C7.1081 37.8295 4.78064 35.8345 4.68003 33.2877L4.54086 29.7203C4.49055 28.4335 5.01876 27.2151 6.02654 26.2883C7.03432 25.3615 8.3892 24.8512 9.84135 24.8512L10.1214 24.8512C11.5735 24.8512 12.9284 25.3615 13.9362 26.2883C14.944 27.2151 15.4722 28.4335 15.4219 29.7203L15.2827 33.2877C15.1804 35.8345 12.853 37.8295 9.98052 37.8295ZM9.84135 26.6379C8.94088 26.6379 8.10079 26.9547 7.47365 27.529C6.84819 28.1032 6.5212 28.8604 6.55139 29.6593L6.69056 33.2267C6.75261 34.8066 8.19804 36.0458 9.97885 36.0458C11.7613 36.0458 13.2068 34.8081 13.2688 33.2282L13.408 29.6608C13.4398 28.8619 13.1112 28.1062 12.4857 27.5305C11.8603 26.9562 11.0185 26.6394 10.118 26.6394L9.84135 26.6394L9.84135 26.6379Z" fill="#F3DD2E"/>
<path d="M18.576 25.8434C18.3161 25.8434 18.0562 25.7542 17.86 25.5771L12.422 20.6887L5.35249 20.6887C3.85172 20.6887 2.63098 19.6057 2.63098 18.2743L2.63098 7.55274C2.63098 6.22278 3.85172 5.13977 5.35249 5.13977L16.1748 5.13977C16.7298 5.13977 17.1809 5.53995 17.1809 6.03236C17.1809 6.52478 16.7298 6.92495 16.1748 6.92495L5.35249 6.92495C4.96179 6.92495 4.64319 7.20612 4.64319 7.55274L4.64319 18.2743C4.64319 18.6209 4.96179 18.9035 5.35249 18.9035L12.8429 18.9035C13.1129 18.9035 13.3695 18.9987 13.5589 19.1698L18.5861 23.6893L23.7592 19.1609C23.947 18.9958 24.2018 18.9035 24.4651 18.9035L32.0511 18.9035C32.3395 18.9035 32.6045 18.7429 32.7101 18.5048C32.9147 18.0466 33.4999 17.822 34.0164 18.0035C34.5328 18.185 34.7861 18.7042 34.5815 19.1624C34.1673 20.0892 33.1746 20.6887 32.0511 20.6887L24.8776 20.6887L19.282 25.5861C19.0858 25.7586 18.8309 25.8434 18.576 25.8434Z" fill="#F3DD2E"/>
<path d="M39.9977 49.6875C38.413 49.6875 36.8268 49.4152 35.3495 48.8708C35.3478 48.8708 35.3327 48.8648 35.331 48.8648C34.8665 48.6937 34.3735 48.5807 33.8705 48.5286L31.8868 48.3263C30.8337 48.2192 30.0389 47.4277 30.0389 46.486L30.0389 44.7113C30.0389 41.2927 33.1746 38.5107 37.028 38.5107L43.0109 38.5107C46.8643 38.5107 50 41.2927 50 44.7113L50 46.4875C50 47.4277 49.2052 48.2192 48.1521 48.3278L46.0578 48.542C45.5799 48.5911 45.112 48.6997 44.6677 48.8648C43.1853 49.4123 41.5907 49.6875 39.9977 49.6875ZM37.028 40.293C34.283 40.293 32.0511 42.2745 32.0511 44.7083L32.0511 46.4831C32.0511 46.5173 32.0796 46.5456 32.1182 46.55L34.1019 46.7523C34.7927 46.8237 35.4668 46.9785 36.1074 47.215C36.1091 47.215 36.1242 47.2209 36.1258 47.2224C38.5925 48.1314 41.4247 48.1299 43.893 47.2135C44.5117 46.9844 45.1623 46.8327 45.828 46.7642L47.9224 46.55C47.961 46.5456 47.9895 46.5173 47.9895 46.4831L47.9895 44.7068C47.9895 42.2715 45.7559 40.2915 43.0126 40.2915L37.028 40.2915L37.028 40.293Z" fill="#F3DD2E"/>
<path d="M40.0194 37.3222C37.147 37.3222 34.8196 35.3272 34.719 32.7804L34.5798 29.213C34.5295 27.9261 35.056 26.7078 36.0655 25.7809C37.0749 24.8541 38.4281 24.3439 39.8803 24.3439L40.1603 24.3439C41.6124 24.3439 42.9673 24.8541 43.9751 25.7809C44.9829 26.7078 45.5111 27.9261 45.4608 29.213L45.3216 32.7804C45.2193 35.3272 42.8919 37.3222 40.0194 37.3222ZM39.8786 26.1291C38.9781 26.1291 38.1363 26.4459 37.5109 27.0202C36.8854 27.5944 36.5584 28.3516 36.5886 29.1505L36.7278 32.7179C36.7898 34.2978 38.2353 35.5355 40.0178 35.5355C41.8002 35.5355 43.2457 34.2978 43.306 32.7179L43.4452 29.1505C43.4771 28.3516 43.1484 27.5959 42.523 27.0202C41.8975 26.4459 41.0557 26.1291 40.1553 26.1291L39.8786 26.1291Z" fill="#F3DD2E"/>
<path d="M37.7809 21.5516C37.6283 21.5516 37.474 21.5203 37.3332 21.4578L25.4628 16.2183L17.9506 16.2183C16.4179 16.2183 15.1704 15.1115 15.1704 13.7518L15.1704 2.66135C15.1704 1.30164 16.4179 0.194824 17.9506 0.194824L45.5698 0.194824C47.1024 0.194824 48.35 1.30164 48.35 2.66135L48.35 13.7533C48.35 15.113 47.1024 16.2198 45.5698 16.2198L38.7384 16.2198L38.787 20.6515C38.7903 20.9625 38.6109 21.2525 38.3141 21.4162C38.1515 21.5069 37.967 21.5516 37.7809 21.5516ZM17.9489 1.98001C17.5247 1.98001 17.1809 2.28646 17.1809 2.66135L17.1809 13.7533C17.1809 14.1297 17.5263 14.4346 17.9489 14.4346L25.6976 14.4346C25.8535 14.4346 26.0061 14.4659 26.1453 14.5284L36.758 19.2115L36.7144 15.3362C36.7111 15.0981 36.8167 14.869 37.0062 14.6994C37.1957 14.5298 37.4522 14.4346 37.7205 14.4346L45.5681 14.4346C45.9924 14.4346 46.3361 14.1282 46.3361 13.7533L46.3361 2.66135C46.3361 2.28498 45.9907 1.98001 45.5681 1.98001L17.9489 1.98001Z" fill="#F3DD2E"/>
</svg>
