<svg width="50" height="51" viewBox="0 0 50 51" fill="none" xmlns="http://www.w3.org/2000/svg">
<path d="M25 44.5436C24.8 44.5436 24.6081 44.4646 24.4663 44.3227L7.61046 27.468C5.21628 25.0773 3.89883 21.8971 3.89883 18.5134C3.89883 15.1308 5.21744 11.9506 7.61162 9.55874C10.0058 7.16455 13.186 5.84595 16.5674 5.84595C19.707 5.84595 22.6744 6.98432 25 9.06804C27.6872 6.66106 31.2407 5.52037 34.857 5.92734C37.7337 6.2506 40.3384 7.50641 42.3884 9.5599C44.7826 11.9541 46.1012 15.1355 46.1012 18.5157C46.1012 21.8936 44.7826 25.0727 42.3872 27.4669L25.5337 44.3227C25.3919 44.4646 25.2 44.5436 25 44.5436ZM16.5674 7.35525C13.5895 7.35525 10.7884 8.51688 8.67907 10.6262C6.57093 12.7332 5.4093 15.5332 5.4093 18.5122C5.4093 21.4913 6.57093 24.2925 8.67907 26.3983L25 42.7215L41.3209 26.4006C43.4302 24.2913 44.5919 21.4913 44.5919 18.5169C44.5919 15.539 43.4302 12.7378 41.3209 10.6273C39.5139 8.8192 37.2209 7.71223 34.6884 7.42851C31.293 7.04711 27.9616 8.21223 25.5488 10.6273L25.5349 10.6413C25.243 10.9332 24.7709 10.9366 24.4744 10.6483L24.4593 10.6343C22.3419 8.51804 19.5419 7.35525 16.5674 7.35525Z" fill="#27A097"/>
<path d="M8.02789 17.6529C7.97789 17.6529 7.92673 17.6471 7.87557 17.6367C7.49766 17.5529 7.25929 17.1797 7.34301 16.8018C7.75347 14.946 8.68487 13.2518 10.0349 11.9029C11.9232 10.0146 14.4325 8.97388 17.0988 8.97388C18.4581 8.97388 20.0058 9.61225 21.0639 10.1483C21.4093 10.3227 21.5465 10.7436 21.3721 11.089C21.1977 11.4343 20.7767 11.5716 20.4314 11.3971C19.1279 10.7367 17.9442 10.3739 17.0988 10.3739C14.8058 10.3739 12.6488 11.2681 11.0244 12.8925C9.86278 14.0529 9.06278 15.5088 8.70929 17.1029C8.63836 17.4297 8.34882 17.6529 8.02789 17.6529Z" fill="#E44077"/>
</svg>
