<svg width="50" height="51" viewBox="0 0 50 51" fill="none" xmlns="http://www.w3.org/2000/svg">
<path d="M21.2314 46.6494C21.0407 46.6494 20.8535 46.575 20.7128 46.4343L18.2651 43.9867L15.8756 46.3762C15.6651 46.5867 15.3488 46.6494 15.0744 46.5332C14.8 46.4181 14.6221 46.1483 14.6256 45.8518L14.6732 40.2122C14.6767 39.8099 15.0035 39.4855 15.4058 39.4855C15.4081 39.4855 15.4105 39.4855 15.4116 39.4855C15.8163 39.489 16.1418 39.8192 16.1384 40.2239L16.1058 44.0727L17.7477 42.4308C18.0337 42.1448 18.4977 42.1448 18.7837 42.4308L20.543 44.1901L20.6488 40.1681C20.6593 39.7634 20.9942 39.4436 21.4 39.4553C21.8046 39.4657 22.1232 39.8018 22.1128 40.2064L21.9628 45.9332C21.9546 46.2262 21.7744 46.4855 21.5023 46.5948C21.4139 46.6332 21.3221 46.6494 21.2314 46.6494Z" fill="#F3DD2E"/>
<path d="M37.8256 11.8355C37.4209 11.8355 37.093 11.5076 37.093 11.103V5.36576C34.0837 5.35297 22.5163 5.29948 16.2616 5.2053C15.1686 5.18669 14.3209 5.48553 13.743 6.08786C13.0256 6.83437 12.9139 7.83902 12.9325 8.16344C12.9546 8.56693 12.6453 8.91227 12.2407 8.93437C11.836 8.9553 11.4918 8.64716 11.4698 8.24251C11.4337 7.5739 11.6488 6.15297 12.6872 5.07158C13.5593 4.1646 14.7674 3.71576 16.2849 3.73902C23.4709 3.84716 37.686 3.90181 37.8291 3.90181C38.2325 3.90297 38.5593 4.23088 38.5593 4.63437V11.1018C38.5581 11.5076 38.2302 11.8355 37.8256 11.8355Z" fill="#F7DC01"/>
<path d="M22.8698 40.5751C19.6802 40.5751 17.0651 40.5728 16.3965 40.5646C12.5849 40.5193 11.4546 37.6193 11.3895 36.0926C11.3895 36.0821 11.3884 36.0705 11.3884 36.06L11.4419 8.17976C11.4419 8.17278 11.4419 8.16813 11.4419 8.16581C11.45 7.76697 11.7756 7.44836 12.1744 7.44836C12.1767 7.44836 12.1802 7.44836 12.1826 7.44836C12.5849 7.45302 12.907 7.78092 12.907 8.18209V8.21232C12.9116 8.52511 13.0616 10.6344 16.3046 10.653C19.9105 10.6739 37.6988 10.6542 37.8779 10.6542C37.8779 10.6542 37.8779 10.6542 37.8791 10.6542C38.0733 10.6542 38.2593 10.7309 38.3965 10.8681C38.5337 11.0053 38.6116 11.1926 38.6116 11.3867V39.8321C38.6116 40.2367 38.2837 40.5646 37.8802 40.5646C37.75 40.5646 29.186 40.5751 22.8698 40.5751ZM12.8535 36.0402C12.8605 36.1344 12.9302 36.8786 13.3721 37.5995C13.9733 38.5786 14.9965 39.0832 16.4128 39.1007C18.1732 39.1216 33.5814 39.1053 37.1442 39.1019V12.1205C33.7349 12.1239 19.4826 12.1367 16.2942 12.1181C14.8779 12.11 13.7395 11.7716 12.9 11.11L12.8535 36.0402Z" fill="#F7DC01"/>
<path d="M34.3907 8.60411C34.2849 8.60411 34.1849 8.58202 34.0942 8.54132C32.357 8.54132 23.3895 8.53783 17.7837 8.52969C17.3791 8.52969 17.0511 8.20062 17.0523 7.79597C17.0523 7.39132 17.3802 7.06458 17.7849 7.06458H17.786C23.9825 7.07388 34.2872 7.0762 34.3907 7.0762C34.7953 7.0762 35.1232 7.40411 35.1232 7.80876V7.87155C35.1232 8.2762 34.7942 8.60411 34.3907 8.60411Z" fill="#F3DD2E"/>
<path d="M34.3907 8.54248C34.3895 8.54248 34.3895 8.54248 34.3907 8.54248C34.2802 8.54248 23.3314 8.54016 17.2128 8.52969C16.8081 8.52853 16.4802 8.20062 16.4814 7.79597C16.4826 7.39132 16.8105 7.06458 17.2139 7.06458H17.2151C23.3325 7.07388 34.2814 7.07737 34.3907 7.07737C34.7953 7.07737 35.1232 7.40527 35.1232 7.80992C35.1221 8.21457 34.7942 8.54248 34.3907 8.54248Z" fill="#F3DD2E"/>
</svg>
