<svg width="50" height="50" viewBox="0 0 50 51" fill="none" xmlns="http://www.w3.org/2000/svg">
<path d="M36.4128 36.5693C34.6395 36.5693 33.2012 35.1809 33.1395 33.4077L33.0558 30.996C33.0244 30.1007 33.35 29.2519 33.9733 28.6077C34.5954 27.9635 35.4326 27.6077 36.3291 27.6077L36.4965 27.6077C37.393 27.6077 38.2291 27.9623 38.8523 28.6077C39.4744 29.2519 39.8012 30.1007 39.7698 30.9972L39.686 33.4088C39.6244 35.1809 38.186 36.5693 36.4128 36.5693ZM36.3291 29.003C35.8151 29.003 35.3349 29.2065 34.9767 29.5763C34.6198 29.946 34.4326 30.4332 34.45 30.9472L34.5337 33.3588C34.5686 34.3763 35.3942 35.1728 36.4128 35.1728C37.4302 35.1728 38.2558 34.3763 38.2907 33.3588L38.3744 30.9472C38.3919 30.4332 38.2047 29.946 37.8477 29.5763C37.4907 29.2065 37.0105 29.003 36.4954 29.003L36.3291 29.003Z" fill="#F3DD2E"/>
<path d="M13.5872 36.5692C11.814 36.5692 10.3756 35.1809 10.314 33.4076L10.2303 30.996C10.1989 30.1006 10.5244 29.2518 11.1477 28.6064C11.771 27.9623 12.607 27.6064 13.5035 27.6064L13.671 27.6064C14.5675 27.6064 15.4035 27.9611 16.0268 28.6064C16.65 29.2506 16.9756 30.0995 16.9442 30.9948L16.8605 33.4088C16.7989 35.1809 15.3605 36.5692 13.5872 36.5692ZM13.5035 29.003C12.9896 29.003 12.5093 29.2064 12.1512 29.5762C11.793 29.946 11.607 30.4332 11.6244 30.9471L11.7082 33.3588C11.743 34.3762 12.5686 35.1727 13.5861 35.1727C14.6035 35.1727 15.4291 34.3762 15.4651 33.3588L15.5489 30.9471C15.5663 30.4332 15.3791 29.946 15.0221 29.5762C14.6651 29.2064 14.1849 29.003 13.6698 29.003L13.5035 29.003Z" fill="#F3DD2E"/>
<path d="M38.3047 37.7087L34.5198 37.7087C33.2326 37.7087 32.0221 38.2657 31.1802 39.2029C30.1582 38.1785 28.7616 37.5878 27.2919 37.5878L22.4977 37.5878C21.0675 37.5878 19.7326 38.1285 18.7198 39.0936C17.8826 38.2157 16.7233 37.7087 15.4791 37.7087L11.6942 37.7087C9.22211 37.7087 7.21048 39.7192 7.21048 42.1913L7.21048 43.4575C7.21048 44.161 7.73722 44.7506 8.4349 44.8308L9.68955 44.975C10.0058 45.0122 10.3116 45.0913 10.6 45.2122C10.6047 45.2145 10.6128 45.2168 10.6198 45.2203C11.5605 45.6099 12.5535 45.8075 13.5733 45.8075C14.6012 45.8075 15.6035 45.6064 16.5535 45.2087C16.714 45.1413 16.8802 45.0889 17.0512 45.0494C17.2012 45.675 17.7268 46.161 18.3919 46.2378L19.9837 46.4215C20.3954 46.468 20.7989 46.5738 21.1942 46.7378L21.1965 46.7389C22.3698 47.2261 23.6093 47.4738 24.8802 47.4738C26.1582 47.4738 27.4035 47.2238 28.5802 46.732C28.9465 46.5796 29.3314 46.4785 29.7256 46.432L31.4023 46.2378C32.0802 46.1599 32.614 45.6552 32.7512 45.011C32.9837 45.0552 33.2105 45.1215 33.4256 45.2122C33.4302 45.2145 33.4384 45.2168 33.4454 45.2203C34.3861 45.6099 35.3791 45.8075 36.3989 45.8075C37.4268 45.8075 38.4291 45.6064 39.3791 45.2087C39.6523 45.0936 39.943 45.018 40.2419 44.9843L41.5651 44.8308C42.2628 44.7506 42.7895 44.161 42.7895 43.4587L42.7895 42.1913C42.7895 39.7203 40.7779 37.7087 38.3047 37.7087ZM16.014 43.9227C15.2361 44.2482 14.4151 44.4134 13.5721 44.4134C12.7337 44.4134 11.9175 44.2506 11.1454 43.9285C11.1407 43.9261 11.1326 43.9238 11.1256 43.9203C10.7209 43.7529 10.2919 43.6413 9.85001 43.5889L8.60583 43.4459L8.60583 42.1913C8.60583 40.4889 9.99188 39.104 11.6942 39.104L15.4791 39.104C16.3954 39.104 17.2465 39.5017 17.8279 40.1866C17.2872 41.0529 17.0047 42.0436 17.0047 43.0808L17.0047 43.6343C16.664 43.6924 16.3314 43.7889 16.014 43.9227ZM31.3907 44.6843C31.3907 44.7703 31.3268 44.8424 31.2419 44.8517L29.5628 45.0459C29.0396 45.1064 28.5268 45.2413 28.0407 45.4447C27.0349 45.8657 25.9709 46.0785 24.8791 46.0785C23.793 46.0785 22.7337 45.8668 21.7209 45.4471L21.7198 45.4471C21.214 45.2366 20.6826 45.0982 20.1419 45.0366L18.55 44.8529C18.4651 44.8436 18.4012 44.7715 18.4012 44.6854L18.4012 44.2494L18.4012 43.082C18.4012 42.175 18.6907 41.3168 19.2396 40.5994L19.2407 40.5982C20.0221 39.5727 21.2093 38.9843 22.5 38.9843L27.2942 38.9843C28.6302 38.9843 29.8849 39.6378 30.6523 40.7331C31.1361 41.4238 31.3919 42.2354 31.3919 43.082L31.3919 44.6843L31.3907 44.6843ZM41.3942 43.4459L40.0814 43.5982C39.6523 43.6482 39.2349 43.7564 38.8407 43.9215C38.0628 44.2471 37.2419 44.4122 36.3989 44.4122C35.5605 44.4122 34.7442 44.2494 33.9721 43.9273C33.9675 43.925 33.9593 43.9227 33.9523 43.9192C33.5814 43.7657 33.1895 43.6622 32.7861 43.6052L32.7861 43.0808C32.7861 42.1087 32.5326 41.1692 32.0512 40.3378C32.6314 39.5692 33.5442 39.104 34.5209 39.104L38.3058 39.104C40.0093 39.104 41.3942 40.4889 41.3942 42.1913L41.3942 43.4459Z" fill="#F3DD2E"/>
<path d="M24.8954 36.2995C22.6523 36.2995 20.8349 34.5436 20.757 32.3018L20.6454 29.0797C20.6058 27.9471 21.0175 26.8739 21.8058 26.0588C22.593 25.2436 23.6512 24.7948 24.7849 24.7948L25.0093 24.7948C26.143 24.7948 27.2012 25.2436 27.9884 26.0588C28.7756 26.8739 29.1884 27.9471 29.1489 29.0797L29.0372 32.3018C28.957 34.5436 27.1384 36.2995 24.8954 36.2995ZM24.7837 26.189C24.0326 26.189 23.3302 26.4867 22.8082 27.0274C22.2861 27.5681 22.0128 28.2797 22.0396 29.0308L22.1512 32.2529C22.2035 33.739 23.4082 34.9029 24.8954 34.9029C26.3826 34.9029 27.5884 33.739 27.6396 32.2529L27.7512 29.0308C27.7768 28.2797 27.5035 27.5681 26.9814 27.0274C26.4593 26.4867 25.7582 26.189 25.0058 26.189L24.7837 26.189Z" fill="#F3DD2E"/>
<path d="M25.2884 22.0623C25.1093 22.0623 24.9314 21.9937 24.7954 21.8576L20.1628 17.2251L14.1372 17.2251C12.9651 17.2251 12.0117 16.2716 12.0117 15.0995L12.0117 5.04135C12.0117 3.86926 12.9651 2.91577 14.1372 2.91577L36.3617 2.91577C37.5338 2.91577 38.4872 3.86926 38.4872 5.04135L38.4872 15.1007C38.4872 16.2727 37.5338 17.2262 36.3617 17.2262L30.4151 17.2262L25.7814 21.8588C25.6454 21.9948 25.4663 22.0623 25.2884 22.0623ZM14.1372 4.31112C13.7349 4.31112 13.407 4.63903 13.407 5.04135L13.407 15.1007C13.407 15.503 13.7349 15.8309 14.1372 15.8309L20.4524 15.8309C20.6372 15.8309 20.8151 15.9041 20.9454 16.0355L25.2884 20.3786L29.6326 16.0355C29.764 15.9041 29.9407 15.8309 30.1256 15.8309L36.3605 15.8309C36.7628 15.8309 37.0907 15.503 37.0907 15.1007L37.0907 5.04135C37.0907 4.63903 36.7628 4.31112 36.3605 4.31112L14.1372 4.31112Z" fill="#F3DD2E"/>
<path d="M28.1268 9.51572L25.9465 9.51572L25.9465 7.33549C25.9465 6.95061 25.6337 6.63782 25.2489 6.63782C24.864 6.63782 24.5512 6.95061 24.5512 7.33549L24.5512 9.51572L22.371 9.51572C21.9861 9.51572 21.6733 9.82852 21.6733 10.2134C21.6733 10.5983 21.9861 10.9111 22.371 10.9111L24.5512 10.9111L24.5512 13.0913C24.5512 13.4762 24.864 13.789 25.2489 13.789C25.6337 13.789 25.9465 13.4762 25.9465 13.0913L25.9465 10.9111L28.1268 10.9111C28.5117 10.9111 28.8244 10.5983 28.8244 10.2134C28.8244 9.82852 28.5128 9.51572 28.1268 9.51572Z" fill="#F3DD2E"/>
</svg>
